<?xml version="1.0" ?><!DOCTYPE svg  PUBLIC '-//W3C//DTD SVG 1.1//EN'  'http://www.w3.org/Graphics/SVG/1.1/DTD/svg11.dtd'><svg enable-background="new 0 0 500 500" height="500px" id="money" version="1.1" viewBox="0 0 500 500" width="500px" xml:space="preserve" xmlns="http://www.w3.org/2000/svg" xmlns:xlink="http://www.w3.org/1999/xlink"><g><rect fill="#33B679" height="37.03" width="111.055" x="41.832" y="188.652"/><rect fill="#33B679" height="37.002" width="111.065" x="193.689" y="133.104"/><rect fill="#33B679" height="37.03" width="111.055" x="346.604" y="147.464"/><rect fill="#33B679" height="37.03" width="111.055" x="346.604" y="93.561"/><rect fill="#33B679" height="37.009" width="111.055" x="346.604" y="201.395"/><path d="M362.037,309.207c0.035,1.054,0.166,2.079,0.166,3.104c0,11.951-2.272,23.358-6.224,33.926h101.679v-37.03   H362.037z" fill="#33B679"/><path d="M346.604,255.305v4.378c6.347,9.823,11.028,20.824,13.506,32.651h97.549v-37.029H346.604z" fill="#33B679"/><path d="M249.733,199.859c20.443,0,39.374,6.361,55.021,17.155v-30.008H193.689v30.779   C209.522,206.551,228.833,199.859,249.733,199.859z" fill="#33B679"/><path d="M152.887,259.662v-17.08H41.832v37.03h101.231C145.603,272.535,148.887,265.864,152.887,259.662z" fill="#33B679"/><path d="M137.294,312.312c0-5.39,0.551-10.67,1.397-15.826h-96.86v37.029h97.848   C138.154,326.693,137.294,319.616,137.294,312.312z" fill="#33B679"/><path d="M145.066,350.416H41.832v37.009h111.055v-22.442C149.899,360.37,147.245,355.523,145.066,350.416z" fill="#33B679"/><g><path d="M258.09,325.398v17.968c2.158-1.246,3.721-2.953,4.444-5.066    C264.035,333.941,262.796,329.315,258.09,325.398z" fill="#33B679"/><path d="M235.906,286.324c-1.577,4.626-0.107,9.583,5.345,13.617v-19.166    C238.636,282.063,236.735,283.929,235.906,286.324z" fill="#33B679"/><path d="M249.22,220.002c-50.991,0-92.32,41.326-92.32,92.309c0,51.005,41.329,92.33,92.32,92.33    c50.984,0,92.323-41.325,92.323-92.33C341.543,261.328,300.204,220.002,249.22,220.002z M258.09,361.01v13.962h-16.838v-12.509    c-9.538-1.033-18.866-4.813-24.663-10.319l8.419-13.459c2.812,1.962,6.137,3.69,9.848,4.957c2.165,0.736,4.309,1.267,6.395,1.632    v-27.158c-4.998-1.356-9.517-3.518-13.283-6.292c-1.002-0.688-1.969-1.446-2.867-2.23c-0.152-0.097-0.245-0.138-0.245-0.138    c0.038,0,0.048,0,0.072-0.021c-5.645-5.054-9.053-11.614-9.053-18.801c0-12.674,10.629-23.454,25.375-27.255v-13.706h16.838    v12.488c9.552,1.012,17.951,4.818,23.761,10.319l-8.412,13.451c-2.815-1.955-6.141-3.662-9.865-4.929    c-1.838-0.641-3.676-1.129-5.483-1.474v27.255c4.65,1.355,8.836,3.407,12.382,6.01c0.998,0.716,1.962,1.452,2.87,2.258    c0.151,0.069,0.241,0.117,0.241,0.117c-0.034,0.021-0.048,0.021-0.069,0.021c5.646,5.066,9.053,11.613,9.053,18.801    C282.566,346.43,272.378,357.004,258.09,361.01z" fill="#33B679"/></g></g></svg>